Coordinates
nRows=11
nColumns=24

# SIMM Motion File Header:
name Coordinates
datacolumns 24
datarows 11
otherdata 1
range 0.11833000000000000000 0.12833000000000000000

Units are S.I. units (second, meters, Newtons, ...)
Angles are in degrees.

endheader
time	pelvis_tx	pelvis_ty	pelvis_tz	pelvis_tilt	pelvis_list	pelvis_rotation	hip_flexion_r	hip_adduction_r	hip_rotation_r	knee_angle_r	ankle_angle_r	subtalar_angle_r	mtp_angle_r	hip_flexion_l	hip_adduction_l	hip_rotation_l	knee_angle_l	ankle_angle_l	subtalar_angle_l	mtp_angle_l	lumbar_extension	lumbar_bending	lumbar_rotation
      0.11833000000000000000	      1.16293788938695310000	      0.71248512581163703000	     -0.19946418290819970000	     -0.98590323912283218000	      4.73877661141845860000	      1.08457262155846920000	    -11.03914681959021300000	     -4.31336926066420560000	      0.26405128582177034000	    -42.42112318263741600000	    -26.80550512191641500000	      0.00000000000000000000	      0.00000000000000000000	     27.62058146961319200000	      9.98497410135902190000	      0.55198525755442840000	    -25.51364858053296200000	     -2.00995238010167120000	      0.00000000000000000000	      0.00000000000000000000	     -0.73604986070266976000	     -9.52444178226835270000	     11.70062603619230900000
      0.11933000000000001000	      1.16406696441589900000	      0.71259914376326694000	     -0.19953981690489939000	     -1.00542989848887050000	      4.74168325831429010000	      1.08912562769575700000	    -10.79494908731252400000	     -4.36261898013690090000	      0.17670569067165171000	    -42.78749929573370300000	    -26.91925719838983300000	      0.00000000000000000050	      0.00000000000000000032	     27.56718971258763400000	     10.00098286900602700000	      0.54803855882329833000	    -25.56980865000413400000	     -1.88961620181645260000	      0.00000000000000001481	     -0.00000000000000001073	     -0.73432225983025379000	     -9.52442746851680160000	     11.67115800722658600000
      0.12033000000000001000	      1.16519315286833550000	      0.71271447492260709000	     -0.19961480287913294000	     -1.02497553168088280000	      4.74441366082441980000	      1.09374810869649800000	    -10.55049902026011600000	     -4.41168637379369870000	      0.08910612367129262800	    -43.15324243869482500000	    -27.03009960279259300000	      0.00000000000000000377	      0.00000000000000000245	     27.51348645086215300000	     10.01672484876443100000	      0.54416825121536039000	    -25.62516944090210600000	     -1.76977308262567860000	      0.00000000000000002619	     -0.00000000000000004533	     -0.73264669993412912000	     -9.52425997188066550000	     11.64171815319132000000
      0.12133000000000001000	      1.16631644694582980000	      0.71283117671908580000	     -0.19968914375308894000	     -1.04453609213696000000	      4.74695556346477240000	      1.09845122998653680000	    -10.30579413667418400000	     -4.46055450818919490000	      0.00123702619389929250	    -43.51829342962885500000	    -27.13782703940132300000	      0.00000000000000000975	      0.00000000000000000339	     27.45945517037365100000	     10.03218595792712400000	      0.54038462444961288000	    -25.67972083689538500000	     -1.65028144773047880000	      0.00000000000000000249	     -0.00000000000000004187	     -0.73103422600661272000	     -9.52392849377043580000	     11.61229976593840800000
      0.12233000000000001000	      1.16743683173460950000	      0.71294930784872423000	     -0.19976283589436472000	     -1.06411258863951220000	      4.74929405400335550000	      1.10324070075931770000	    -10.06081742811890000000	     -4.50920670563929880000	     -0.08691829057276694000	    -43.88259515497917800000	    -27.24220026744057300000	      0.00000000000000001862	      0.00000000000000000161	     27.40506869988600200000	     10.04734485104549400000	      0.53669396254647139000	    -25.73340022251786200000	     -1.53116814927060240000	     -0.00000000000000001451	      0.00000000000000000472	     -0.72949074697384331000	     -9.52341949381811580000	     11.58290288148694600000
      0.12333000000000001000	      1.16855429376308170000	      0.71306892500709185000	     -0.19983587584754792000	     -1.08370602482664860000	      4.75141441671596710000	      1.10812199372524730000	     -9.81555230562904240000	     -4.55762632998481450000	     -0.17537513552063527000	    -44.24609056576984000000	    -27.34298434012381700000	      0.00000000000000002821	     -0.00000000000000000116	     27.35030020630903600000	     10.06218045454707900000	      0.53310225458489191000	    -25.78614544918622900000	     -1.41246118865698510000	     -0.00000000000000001618	      0.00000000000000003667	     -0.72802195189250951000	     -9.52271940881766450000	     11.55352733626422800000
      0.12433000000000001000	      1.16966882111352130000	      0.71319008267938178000	     -0.19990826041477894000	     -1.10331732485933180000	      4.75330215739659770000	      1.11310039896176650000	     -9.56998283057150800000	     -4.60579678011379560000	     -0.26414736317051501000	    -44.60872265114164700000	    -27.43994934684931100000	      0.00000000000000003856	     -0.00000000000000000289	     27.29512328859163600000	     10.07667205090827000000	      0.52961524085078748000	    -25.83789540757506800000	     -1.29418823962450280000	     -0.00000000000000006320	      0.00000000000000007663	     -0.72663337446684373000	     -9.52181466115004580000	     11.52417266539101000000
      0.12533000000000000000	      1.17078040343252310000	      0.71331283293832060000	     -0.19997998665528885000	     -1.12294732770769400000	      4.75494301795740080000	      1.11818101213121350000	     -9.32409376663677490000	     -4.65370149244763720000	     -0.35324728007872497000	    -44.97043444363121300000	    -27.53287075169802000000	      0.00000000000000004749	     -0.00000000000000000873	     27.23951199976529800000	     10.09079930354407600000	      0.52623839709933318000	    -25.88859010308756200000	     -1.17637662049217440000	     -0.00000000000000009121	      0.00000000000000011044	     -0.72533038777112180000	     -9.52069165909243330000	     11.49483808525812000000
      0.12633000000000000000	      1.17188903194498530000	      0.71343722525460018000	     -0.20005105187810290000	     -1.14259677755252140000	      4.75632298594747120000	      1.12336871441023800000	     -9.07787063263895890000	     -4.70132393858761240000	     -0.44268554448146696000	    -45.33116902400033200000	    -27.62152971975801200000	      0.00000000000000005671	     -0.00000000000000002054	     27.18344085342674900000	     10.10454227226523300000	      0.52297690313835399000	    -25.93817070478895900000	     -1.05905335437337840000	     -0.00000000000000018961	      0.00000000000000018270	     -0.72411820142066174000	     -9.51933679125929900000	     11.46552248582168200000
      0.12733000000000000000	      1.17299469945726980000	      0.71356330636985887000	     -0.20012145365314829000	     -1.16226631780766020000	      4.75742830656516790000	      1.12866815952386810000	     -8.83129974570324800000	     -4.74864762614020110000	     -0.53247108582631331000	    -45.69086952770033600000	    -27.70571340847223900000	      0.00000000000000006887	     -0.00000000000000003700	     27.12688483868029700000	     10.11788143159229100000	      0.51983562514860226000	    -25.98657959989030500000	     -0.94224515363887329000	     -0.00000000000000026795	      0.00000000000000028129	     -0.72300185716896059000	     -9.51773642569845180000	     11.43622442097332100000
      0.12833000000000000000	      1.17409740034468910000	      0.71369112025063441000	     -0.20019118985262691000	     -1.18195649299717620000	      4.75824550132858450000	      1.13408377464162260000	     -8.58436825078280920000	     -4.79565610653251450000	     -0.62261105107225856000	    -46.04947915364926600000	    -27.78521522599149300000	      0.00000000000000008124	     -0.00000000000000005396	     27.06981945736932000000	     10.13079769786990300000	      0.51681912229786175000	    -26.03376047184122700000	     -0.82597831884486550000	     -0.00000000000000027812	      0.00000000000000038800	     -0.72198621969131638000	     -9.51587691846267700000	     11.40694209008241300000
